<svg width="824" height="769" viewBox="0 0 824 769" fill="none" xmlns="http://www.w3.org/2000/svg">
<path fill-rule="evenodd" clip-rule="evenodd" d="M597.542 581.04C577.303 576.509 583.495 525.938 586.543 503.002C588.72 486.622 688.723 506.04 708.385 474.04C728.047 442.04 727.385 377.04 696.543 363.04C665.7 349.04 609.543 352.04 586.543 342.04C563.544 332.04 558.885 270.286 597.542 266.04C638.782 263.97 683.394 271.105 708.385 276.207C732.817 281.195 755.276 298.96 778.544 318.039C801.812 337.117 820.544 380.041 820.543 412.04C820.541 444.04 814.77 482.041 795.543 510.041C779.795 532.974 752.97 555.186 729.542 565.041C708.623 573.841 617.781 585.571 597.542 581.04Z" fill="#F5D9A3"/>
<path fill-rule="evenodd" clip-rule="evenodd" d="M330.028 718.6C192.028 716.037 83.0283 703.599 64.4814 630.599C65.5264 574.338 63.6397 510.434 64.4799 465.195C65.3201 419.957 68.1052 270.002 69.2185 210.061C70.3318 150.12 137.927 133.471 204.786 123.768C271.645 114.064 307.172 113.872 393.082 118.459C483.894 128.532 620.101 123.106 619.2 171.627C617.761 249.098 617.711 251.774 616.82 299.765C615.929 347.757 619.2 412.456 619.2 457.597C619.2 523.668 620.008 505.057 619.2 548.598C618.004 613.062 624.455 616.297 611.046 658.599C592.028 718.599 468.028 721.163 330.028 718.6Z" fill="#F5D9A3"/>
<path fill-rule="evenodd" clip-rule="evenodd" d="M338.788 211.914C297.294 220.217 246.288 235.09 186.594 211.913C143.431 195.155 78.7881 211.913 51.7881 178.091C24.788 144.269 30.8942 104.868 66.6193 88.8808C89.7447 23.388 108.956 12.0319 160.194 7.41361C211.433 2.79532 251.473 60.7954 306.653 38.1983C381.626 7.49527 410.894 51.4169 455.917 38.2533C484.102 30.0126 544.302 45.8065 576.109 54.6995C607.916 63.5925 633.344 98.1136 632.135 122.232C630.538 154.1 593.258 171.715 569.925 178.091C559.782 190.623 536.303 272.139 459.902 268.305C405.618 265.581 380.282 203.611 338.788 211.914Z" fill="white"/>
<circle cx="244.503" cy="409.5" r="17.5" fill="#966F53"/>
<circle cx="576.001" cy="154" r="5" fill="#F5D9A3" fill-opacity="0.4"/>
<circle cx="5" cy="5" r="5" transform="matrix(-0.987428 -0.158069 -0.158069 0.987428 89.458 98.5803)" fill="#F5D9A3" fill-opacity="0.4"/>
<circle cx="422.503" cy="409.5" r="17.5" fill="#966F53"/>
<line x1="146.796" y1="630.097" x2="146.796" y2="295.097" stroke="#FFF7E9" stroke-opacity="0.3" stroke-width="15" stroke-linecap="round"/>
<path d="M273.796 630.097L273.796 524.597" stroke="#FFF7E9" stroke-opacity="0.3" stroke-width="15" stroke-linecap="round"/>
<path d="M400.796 630.097L400.796 527.597" stroke="#FFF7E9" stroke-opacity="0.3" stroke-width="15" stroke-linecap="round"/>
<line x1="527.788" y1="630.097" x2="527.788" y2="295.097" stroke="#FFF7E9" stroke-opacity="0.3" stroke-width="15" stroke-linecap="round"/>
<path d="M465.556 305.932C465.437 309.441 465.695 311.999 467.773 316.345C470.005 321.014 472.02 324.753 475.13 326.535C479.561 329.075 483.792 328.796 486.805 326.666C489.458 324.791 490.472 322.101 491.052 320.097C491.55 318.376 491.761 317.334 491.14 314.418C490.519 311.502 488.037 305.935 483.634 299.471" stroke="#82D1EE" stroke-width="6" stroke-linecap="round"/>
<path d="M174.765 355.383C172.529 356.766 171.056 357.998 169.309 361.155C167.433 364.546 166.035 367.41 166.358 370.17C166.819 374.102 168.94 376.732 171.652 377.801C174.04 378.742 176.179 378.281 177.693 377.823C178.993 377.431 179.738 377.133 181.266 375.517C182.793 373.901 185.113 369.973 187.107 364.426" stroke="#82D1EE" stroke-width="6" stroke-linecap="round"/>
<path d="M493.842 340.93C493.191 342.624 492.913 343.912 493.38 346.356C493.881 348.982 494.413 351.12 495.897 352.474C498.012 354.403 500.48 354.926 502.56 354.355C504.39 353.853 505.418 352.699 506.084 351.811C506.655 351.049 506.949 350.573 507.079 349.054C507.208 347.535 506.713 344.432 505.267 340.592" stroke="#82D1EE" stroke-width="5" stroke-linecap="round"/>
<path d="M595.415 92.863C597.699 95.9434 604.089 100.282 605.572 109.167C607.056 118.052 604.583 123.229 602.085 130.573C599.33 138.675 594.312 138.883 592.422 141.207" stroke="#F5D9A3" stroke-opacity="0.4" stroke-width="8" stroke-linecap="round"/>
<path d="M71.3629 119.133C67.9703 119.133 65.3026 124.216 63.1615 132.538C61.0203 140.861 62.6453 146.363 64.0807 153.971C65.6641 162.365 69.9623 163.548 71.363 166.17" stroke="#F5D9A3" stroke-opacity="0.4" stroke-width="8" stroke-linecap="round"/>
<path d="M297.997 463C299.003 464.201 305.546 469.42 309.93 471.391C317.288 474.7 327.617 476 333.994 476C337.972 476 348.711 474.582 352.291 473.046C356.669 471.167 363.428 468.107 368.997 463.709" stroke="#966F53" stroke-width="10" stroke-linecap="round"/>
<line x1="204.631" y1="336.756" x2="250.917" y2="344.917" stroke="#966F53" stroke-width="8" stroke-linecap="round"/>
</svg>
