<svg width="691" height="865" viewBox="0 0 691 865" fill="none" xmlns="http://www.w3.org/2000/svg">
<path fill-rule="evenodd" clip-rule="evenodd" d="M166 803.999C137.78 796.165 137.331 732.475 129.113 675.491C122.18 627.411 103.528 552.438 104.379 515.184C105.231 477.931 90.7559 414.877 89.0007 367C87.8642 336 65.2077 263.515 104.379 258C143.551 252.486 229.001 249.089 292.001 242C355.001 234.912 467.554 234.176 513.678 235.23C547.382 236.001 621.886 237.703 646.456 249.912C671.025 262.121 627.197 456.135 615.846 502.023C605.711 542.994 585.029 650.574 576.151 685.706C560.542 747.469 558.512 792.408 535 804C517.663 812.548 194.219 811.834 166 803.999Z" fill="#EFE0C7"/>
<path fill-rule="evenodd" clip-rule="evenodd" d="M358.104 237.505C337.163 237.196 186.673 216.596 173.448 216.401C145.893 215.995 73.448 208.033 64.7441 199.863C56.0402 191.692 51.0633 176.071 51.4564 161.752C51.8497 147.434 34.2009 115.572 75.877 119.604C117.553 123.636 239.34 138.52 312.554 149.389C390.399 162.081 471.981 171.635 521.923 178.603C558.417 183.696 677.985 192.816 686.549 202.134C695.113 211.452 674.457 264.695 663.01 271.863C646.867 281.973 607.473 271.045 598.656 270.915C580.653 270.649 528.247 258.024 504.186 258.041C486.444 258.053 379.046 237.814 358.104 237.505Z" fill="#CFAD8F"/>
<path fill-rule="evenodd" clip-rule="evenodd" d="M338.74 78.9198C339.673 72.2709 340.811 64.1475 342.353 53.1548C343.286 46.506 345.575 29.7734 352.991 22.7236C360.408 15.6738 403.48 16.439 496.236 30.1157C588.992 43.7925 601.919 50.9198 597.992 78.9198C594.066 106.92 514.992 90.7233 406.992 78.9198C400.992 98.7965 400.088 118.611 397.992 133.571C395.895 148.532 393.811 212.466 381.992 210.723C370.173 208.981 326.316 205.179 327.131 199.361C329.348 183.53 330.261 139.389 331.077 133.571C331.892 127.754 334.894 106.347 336.06 98.0351C337.225 89.7236 337.808 85.5687 338.74 78.9198Z" fill="#CFAD8F"/>
<circle cx="539.5" cy="621.5" r="17.5" fill="#B89D8A"/>
<circle cx="362.5" cy="744.5" r="17.5" fill="#B89D8A"/>
<circle cx="446.5" cy="770.5" r="17.5" fill="#B89D8A"/>
<circle cx="485.5" cy="691.5" r="17.5" fill="#B89D8A"/>
<circle cx="188.5" cy="704.5" r="17.5" fill="#B89D8A"/>
<circle cx="317.5" cy="705.5" r="17.5" fill="#B89D8A"/>
<circle cx="295.5" cy="770.5" r="17.5" fill="#B89D8A"/>
<circle cx="228" cy="759" r="15" fill="#B89D8A"/>
<circle cx="243" cy="650" r="15" fill="#B89D8A"/>
<circle cx="275.5" cy="441.919" r="17.5" fill="#966F53"/>
<circle cx="414" cy="689" r="15" fill="#B89D8A"/>
<circle cx="518" cy="738" r="15" fill="#B89D8A"/>
<circle cx="453.5" cy="441.919" r="17.5" fill="#966F53"/>
<line x1="422.252" y1="381.558" x2="478.401" y2="371.748" stroke="#966F53" stroke-width="8" stroke-linecap="round"/>
<path d="M189.78 328.992C190.673 334.45 190.787 338.499 188.416 345.711C185.87 353.455 183.475 359.706 178.976 363.117C172.564 367.98 165.897 368.398 160.759 365.677C156.235 363.282 154.108 359.285 152.797 356.269C151.671 353.681 151.132 352.094 151.514 347.413C151.896 342.732 154.651 333.531 160.227 322.542" stroke="#82D1EE" stroke-width="9" stroke-linecap="round"/>
<path d="M540.373 393.815C543.214 394.789 545.153 395.797 547.82 398.938C550.683 402.312 552.89 405.212 553.117 408.462C553.44 413.095 551.595 416.688 548.742 418.655C546.23 420.386 543.698 420.443 541.878 420.332C540.316 420.237 539.405 420.1 537.319 418.666C535.234 417.231 531.751 413.364 528.288 407.552" stroke="#82D1EE" stroke-width="7" stroke-linecap="round"/>
<path d="M163.962 391.71C164.988 394.379 165.427 396.408 164.691 400.26C163.901 404.396 163.062 407.766 160.725 409.898C157.392 412.938 153.503 413.761 150.227 412.863C147.343 412.072 145.723 410.254 144.674 408.855C143.774 407.654 143.311 406.904 143.107 404.51C142.903 402.117 143.683 397.228 145.961 391.178" stroke="#82D1EE" stroke-width="7" stroke-linecap="round"/>
<path d="M358.294 524.075C349.92 519.778 344 512.747 344 500.246C344 496.554 351.893 488.527 358.294 486.574C365.51 484.372 377.443 484.962 389.31 491.463C394.439 494.272 396.354 500.19 398.067 504.934C399.779 509.677 400.257 519.864 389.31 526.419" stroke="#966F53" stroke-width="10" stroke-linecap="round"/>
<path d="M75.3451 240.064C73.9606 240.103 69.3347 238.771 67.4126 238.197C65.4905 237.624 61.4357 236.974 55.8076 237.965C52.3947 238.566 38.1956 240.674 34.3677 242.186C28.3443 244.566 19.6057 250.555 16.7062 253.61C11.3837 259.217 8.18639 265.194 7.39664 270.082C6.74447 274.119 5.96377 278.551 6.62907 282.261C7.29437 285.971 10.4081 291.407 14.974 295.19C17.6888 297.439 23.9156 299.706 28.4833 298.807C39.4025 296.657 42.6592 290.801 43.6901 289.536C47.0829 285.371 46.4714 278.036 47.259 274.262C48.0734 270.359 50.4655 259.063 53.3617 255.686C57.3544 251.031 57.8119 250.434 60.932 247.915C63.7769 245.617 73.389 240.567 74.7102 240.189" stroke="#B89D8A" stroke-width="11" stroke-linecap="round"/>
</svg>
