<svg width="943" height="941" viewBox="0 0 943 941" fill="none" xmlns="http://www.w3.org/2000/svg">
<path fill-rule="evenodd" clip-rule="evenodd" d="M397.322 849.232C320.37 847.997 249.714 802.716 194.281 749.525C137.697 695.231 94.7917 625.261 83.4559 548.063C72.3995 472.767 78.293 396.816 107.295 326.53C135.89 257.23 188.793 186.892 250.335 143.631C311.685 100.506 382.056 80.691 457.348 79.4337C530.479 78.2125 611 92.6407 663.261 143.631C715.877 194.967 749.371 242.293 760.603 292.835C801.785 362.098 851.651 474.414 852.327 526.829C853.177 592.762 824.433 678.816 777.45 725.255C736.094 766.132 636.679 776.118 586.512 805.748C523.944 842.703 470.242 850.403 397.322 849.232Z" fill="#FBF8F3"/>
<circle cx="436.003" cy="449" r="150" fill="#FFDA34"/>
<path fill-rule="evenodd" clip-rule="evenodd" d="M341.175 499.37C338.306 501.81 327.12 497.997 325.56 491.305C323.968 484.474 321.133 474.139 321.457 462.055C321.772 450.269 323.307 441.118 325.075 428.768C326.817 416.59 329.603 407.801 332.327 398.7C335.042 389.628 344.261 380.053 344.261 380.053C347.011 377.347 360.785 372.742 362.248 379.187C363.72 385.676 355.28 400.109 354.268 405.789C351.799 419.647 350.779 429.026 349.865 437.44C348.556 449.485 346.813 458.711 344.604 467.826C342.659 475.849 343.347 479.386 342.603 486.23C341.86 493.073 343.894 497.057 341.175 499.37Z" fill="#FBF8F3" fill-opacity="0.9"/>
<circle cx="345.503" cy="526.5" r="12.5" fill="#FBF8F3" fill-opacity="0.9"/>
<circle cx="396.503" cy="440.5" r="12.5" fill="#D68840"/>
<circle cx="511.503" cy="440.5" r="12.5" fill="#D68840"/>
<path d="M443.111 506.609C442.26 506.46 437.804 501.798 437.804 501.798C434.642 498.891 434.753 494.171 434.89 491.917C435.154 487.566 436.055 487.308 437.385 485.154C438.829 482.816 442.797 479.676 442.797 479.676C443.543 479.451 448.328 477.043 452.201 477.083C456.074 477.122 461.519 477.65 465.175 477.872C469.197 478.117 473.273 483.244 474.638 484.996C476.325 487.16 477.808 492.83 477.808 492.83C478.319 499.412 477.249 500.815 476.563 502.58C475.366 505.661 467.652 510.331 470.098 508.251" stroke="#D68840" stroke-width="8" stroke-linecap="round"/>
</svg>
