<svg width="888" height="945" viewBox="0 0 888 945" fill="none" xmlns="http://www.w3.org/2000/svg">
<path fill-rule="evenodd" clip-rule="evenodd" d="M368.423 865.711C327.821 796.29 309.543 717.913 273.721 635.411C240.984 539.924 220.041 465.541 201.553 369.242C176.94 292.507 145.481 205.913 147.982 151.972C172.81 89.0734 208.677 80.6268 268.306 77.232C327.936 73.8371 412.963 77.232 488.269 87.8902C567.471 103.758 630.619 107.723 679.132 119.051C720.68 128.754 743.984 138.86 802.479 151.972C851.816 180.076 869.898 193.651 867.397 247.592C865.193 295.112 804.704 389.984 755.635 458.105C709.936 513.069 580.952 671.11 532.987 715.44C473.471 782.874 438.328 820.741 368.423 865.711Z" fill="#FED481"/>
<path fill-rule="evenodd" clip-rule="evenodd" d="M681.154 549.354C663.31 558.707 643.247 512.898 626.363 493.526C611.474 466.933 610.495 475.586 604.342 438.659C598.19 401.732 601.071 384.553 605.849 359.926C621.491 332.684 641.446 314.939 669.083 317.389C696.721 319.839 711.161 318.541 745.059 328.505C780.398 341.126 773.463 340.53 795 349C813.446 356.254 825 365 810 387C795.001 409 795 406 782 424C769.061 441.915 763.086 452.808 745.06 469.001C726 500 713 512 705 524C705 524 698.998 540 681.154 549.354Z" fill="#FFF4DE" fill-opacity="0.8"/>
<path fill-rule="evenodd" clip-rule="evenodd" d="M379.115 697.578C396.291 686.613 417.021 661.122 433.906 641.75C448.795 615.158 449.773 623.811 455.926 586.883C462.079 549.956 459.197 532.777 454.42 508.151C438.777 480.909 418.823 463.163 391.185 465.613C363.548 468.063 349.108 466.766 315.209 476.729C279.871 489.35 227.119 496.553 233.696 518.742C239.47 538.225 244.47 550.225 250.47 571.225C256.47 592.225 256.161 603.356 266.471 626.225C273.47 641.75 277.745 652.848 285.344 671.226C301.471 710.226 298.511 698.784 315.209 710.226C323.559 715.947 361.939 708.542 379.115 697.578Z" fill="#FFF4DE" fill-opacity="0.8"/>
<path fill-rule="evenodd" clip-rule="evenodd" d="M489.493 203.351C445.712 202.424 373.229 189.547 336.893 184.936C300.557 180.324 211.892 176.936 171.892 176.936C134.891 164.936 142.725 133.936 161.725 118.072C170.725 95.9357 211.139 73.1649 270.4 71.3292C329.662 69.4935 414.337 74.3766 489.493 85.6704C568.635 101.791 631.553 106.732 680.063 118.072C721.609 127.784 745.01 137.48 803.49 150.654C853.174 177.29 869.896 192.936 869.893 210.935C869.889 239.935 869.895 285.351 828.726 268.351C775.726 260.351 711.725 240.351 663.725 228.351C622.725 218.101 532.725 210.935 489.493 203.351Z" fill="#FAC357"/>
<path d="M313.665 203.001C294.846 239.001 282.983 264.706 263.47 300.345C238.622 345.73 233.001 355 242 364.725C250.999 374.449 322.561 338.012 347.799 316.001M364.787 289.001C348.089 319.262 299.343 382.01 281.182 416.596C263.02 451.183 262.092 454.49 263.47 452.887C269.609 445.748 303.958 412.505 364.787 364.725C419.195 321.99 473.08 289.602 474.501 289.001C484.135 284.924 430.091 342.998 393.205 392.932C371.547 422.251 329.927 478.313 313.665 497.001C297.402 515.688 324.863 497.955 364.787 471.001C404.712 444.046 470.039 395.905 512.566 364.725C555.094 333.545 632.043 298.229 631.001 300.345C616.003 330.806 531.797 388.126 486.569 435.756C455.057 468.941 395.343 508.131 366.25 536.422C337.158 564.713 301.8 596.153 298.001 602.315C294.203 608.477 322.133 589.162 386.635 557.281C451.136 525.4 522.653 477.865 590.559 444.298C658.465 410.73 718.792 393.233 713.7 404.322C713.7 404.322 693.075 423.41 658.552 452.887C624.03 482.363 570.854 521.583 536.557 547.001C492.226 579.854 428.236 619.16 424.001 622.501C421.953 624.116 502.567 602.315 536.557 602.315C561.621 602.315 604.923 582.492 604.501 602.315C604.079 622.138 496.458 678.564 434.001 717.001" stroke="#F53302" stroke-opacity="0.4" stroke-width="50" stroke-linecap="round"/>
<circle cx="409.029" cy="396.027" r="14.5" transform="rotate(8.38612 409.029 396.027)" fill="#6B2A2A" stroke="#6B2A2A"/>
<circle cx="550.029" cy="415.027" r="14.5" transform="rotate(8.38612 550.029 415.027)" fill="#6B2A2A" stroke="#6B2A2A"/>
<path d="M668.039 385.061C666.414 383.464 663.442 381.924 662.074 376.229C661.106 372.201 661.77 368.74 662.775 365.175C663.427 362.861 666.573 359.429 668.543 358.387C672.436 356.328 677.905 355.832 679.805 355.624C682.475 355.33 685.586 357.013 687.805 358.549C689.557 359.763 693.731 365.042 694.426 367.665C695.589 372.06 696.186 374.317 694.976 377.931" stroke="#429451" stroke-width="10" stroke-linecap="round"/>
<path d="M667.263 386.945C664.985 386.934 661.791 385.933 656.807 389.01C653.283 391.186 651.316 394.11 649.516 397.348C648.348 399.449 648.163 404.101 648.826 406.228C650.138 410.432 653.669 414.638 654.87 416.124C656.558 418.214 659.952 419.212 662.609 419.685C664.707 420.059 671.389 419.254 673.73 417.881C677.652 415.583 679.666 414.402 681.353 410.985" stroke="#429451" stroke-width="10" stroke-linecap="round"/>
<path d="M709.264 404.257C710.889 405.854 713.86 407.394 715.229 413.089C716.196 417.117 715.532 420.577 714.528 424.143C713.876 426.457 710.729 429.889 708.76 430.931C704.867 432.99 699.398 433.486 697.498 433.694C694.828 433.987 691.716 432.304 689.498 430.768C687.746 429.555 683.572 424.276 682.877 421.652C681.714 417.258 681.117 415.001 682.327 411.387" stroke="#429451" stroke-width="10" stroke-linecap="round"/>
<path d="M709.786 402.991C712.064 403.003 715.258 404.004 720.242 400.927C723.766 398.75 725.733 395.827 727.533 392.589C728.701 390.488 728.886 385.835 728.223 383.708C726.911 379.504 723.379 375.299 722.178 373.812C720.49 371.723 717.096 370.725 714.44 370.252C712.341 369.878 705.66 370.683 703.319 372.055C699.397 374.354 697.383 375.535 695.695 378.952" stroke="#429451" stroke-width="10" stroke-linecap="round"/>
<path d="M314.951 617.014C312.081 617.076 308.077 618.405 301.732 614.632C297.244 611.964 294.704 608.321 292.368 604.278C290.852 601.655 290.521 595.796 291.312 593.102C292.877 587.776 297.239 582.402 298.721 580.504C300.804 577.835 305.06 576.506 308.398 575.854C311.034 575.339 319.471 576.213 322.45 577.893C327.441 580.707 330.004 582.153 332.202 586.424" stroke="#429451" stroke-width="10" stroke-linecap="round"/>
<path d="M315.968 619.373C313.955 621.419 310.242 623.422 308.637 630.628C307.503 635.724 308.412 640.071 309.753 644.544C310.623 647.446 314.661 651.705 317.165 652.976C322.114 655.489 329.017 655.999 331.415 656.221C334.786 656.535 338.671 654.348 341.435 652.366C343.618 650.8 348.766 644.06 349.586 640.739C350.96 635.177 351.665 632.32 350.064 627.791" stroke="#429451" stroke-width="10" stroke-linecap="round"/>
<path d="M368.539 596.673C371.409 596.611 375.413 595.282 381.759 599.055C386.246 601.723 388.786 605.366 391.122 609.409C392.638 612.032 392.97 617.891 392.178 620.585C390.614 625.911 386.252 631.285 384.769 633.183C382.686 635.852 378.43 637.181 375.093 637.833C372.456 638.348 364.019 637.474 361.04 635.794C356.049 632.98 353.486 631.534 351.288 627.263" stroke="#429451" stroke-width="10" stroke-linecap="round"/>
<path d="M367.854 595.09C369.868 593.043 373.58 591.04 375.185 583.834C376.319 578.738 375.41 574.392 374.069 569.919C373.199 567.017 369.161 562.758 366.657 561.487C361.708 558.974 354.806 558.464 352.407 558.241C349.037 557.928 345.151 560.114 342.388 562.097C340.205 563.663 335.056 570.403 334.236 573.724C332.862 579.286 332.157 582.143 333.759 586.672" stroke="#429451" stroke-width="10" stroke-linecap="round"/>
<path d="M558.002 299C562.111 301 569.26 307.5 571.03 310.212C573.101 313.385 574.445 316.827 576.002 320" stroke="#FAE9B9" stroke-width="25" stroke-linecap="round"/>
<path d="M508.342 622.641C506.027 626.581 498.988 633.2 496.146 634.753C492.821 636.57 489.285 637.641 486 638.945" stroke="#FAE9B9" stroke-width="25" stroke-linecap="round"/>
<path d="M263.002 420.862C265.495 417.032 272.83 410.742 275.74 409.321C279.145 407.659 282.727 406.751 286.068 405.599" stroke="#FAE9B9" stroke-width="25" stroke-linecap="round"/>
<path fill-rule="evenodd" clip-rule="evenodd" d="M648.383 347.247C638.304 343.753 637.875 326.668 636.396 315.606C635.798 311.128 636.016 304.769 638.491 290.221C640.967 275.674 641.767 264.898 646.726 256.343C656.068 248.217 663.934 252.728 673.911 257.208C683.887 261.689 689.433 263.07 700.771 271.157C712.303 280.419 709.797 279.302 716.725 285.237C719.169 287.33 717.668 296.479 715.419 298.15C713.169 299.821 708.428 309.171 704.012 312.933C697.155 318.773 694.594 324.099 690.051 327.817C678.951 336.901 674.499 341.127 667.917 344.844C667.917 344.844 658.463 350.742 648.383 347.247Z" fill="#FFE760" fill-opacity="0.8"/>
<path fill-rule="evenodd" clip-rule="evenodd" d="M343.984 469.611C334.538 474.57 321.787 463.19 312.71 456.698C309.035 454.07 304.547 449.559 295.634 437.798C286.721 426.038 279.412 418.079 276.567 408.609C277.035 396.236 285.708 393.588 295.802 389.38C305.897 385.171 310.698 382.073 324.354 379.34C339 377.27 336.47 378.333 345.539 377.343C348.738 376.994 354.382 384.349 354.061 387.133C353.739 389.916 357.313 399.772 357.033 405.567C356.599 414.564 358.73 420.076 358.332 425.933C357.359 440.243 357.394 446.381 355.6 453.724C355.6 453.724 353.43 464.653 343.984 469.611Z" fill="#FFE760" fill-opacity="0.8"/>
<path fill-rule="evenodd" clip-rule="evenodd" d="M429.543 783.812C422.162 776.11 429.564 760.705 433.287 750.184C434.794 745.926 437.885 740.363 446.716 728.541C455.547 716.719 461.169 707.491 469.48 702.134C481.499 699.156 486.446 706.755 493.286 715.289C500.126 723.822 504.434 727.577 510.843 739.942C511.651 741.5 509.002 742.5 507.502 744.5C505.571 747.075 506.717 744.499 500.002 754C493.286 763.5 493.286 764.5 486.003 770.644C479.118 776.452 475.218 785.259 469.48 786.499C455.46 789.529 455.579 790.261 448.027 790.572C448.027 790.572 436.925 791.515 429.543 783.812Z" fill="#FFE760" fill-opacity="0.8"/>
<line x1="442.607" y1="458.673" x2="510.22" y2="465.918" stroke="#6B2A2A" stroke-width="12" stroke-linecap="round"/>
<path d="M293.735 326.515C294.592 326.482 300.645 325.867 304.008 325.822C306.109 325.793 309.075 325.556 311.086 326.779C312.675 327.745 313.267 331.484 313.565 332.906C313.744 334.302 314.361 339.333 314.659 340.755" stroke="#6B2A2A" stroke-width="10" stroke-linecap="round"/>
<path d="M344.683 306.893C343.822 306.941 337.739 307.689 334.364 307.789C332.256 307.851 329.277 308.149 327.277 306.873C325.697 305.865 325.16 301.881 324.882 300.366C324.724 298.878 324.181 293.514 323.904 292" stroke="#6B2A2A" stroke-width="10" stroke-linecap="round"/>
<path d="M345.751 320.871C344.899 321.019 338.786 321.667 335.467 322.337C333.395 322.755 330.416 323.14 328.762 324.85C327.454 326.201 327.858 330.242 327.94 331.794C328.132 333.294 328.853 338.692 328.935 340.245" stroke="#6B2A2A" stroke-width="10" stroke-linecap="round"/>
<path d="M291.409 312.084C292.261 311.935 298.374 311.287 301.693 310.618C303.765 310.199 306.744 309.815 308.399 308.105C309.707 306.754 309.302 302.713 309.22 301.161C309.028 299.661 308.308 294.262 308.226 292.71" stroke="#6B2A2A" stroke-width="10" stroke-linecap="round"/>
</svg>
