<svg width="833" height="839" viewBox="0 0 833 839" fill="none" xmlns="http://www.w3.org/2000/svg">
<path fill-rule="evenodd" clip-rule="evenodd" d="M638.094 119.383C657.515 158.978 630.06 226.437 624.192 259.607C615.331 309.691 632.643 338.394 611.089 424.556C594.353 491.458 539.928 589.161 513.222 633.779C471.77 683.557 451.041 702.616 390.201 741.954C315.411 747.449 274.835 754.183 209.586 716.593C146.21 680.082 127.088 659.715 105.369 606.43C86.588 535.359 102.284 522.468 118.605 473.332C140.088 408.654 180.936 347.973 218.185 311.092C275.406 254.437 305.416 203.452 347.585 185.571C389.06 159.116 409.017 144.822 458.038 119.388C514.619 106.637 559.166 83.7946 638.094 119.383Z" fill="#743742"/>
<path fill-rule="evenodd" clip-rule="evenodd" d="M286.917 515.163C308.978 540.759 318.615 545.966 338.948 563.224C362.553 583.261 378.928 596.013 396.208 615.484C414.921 636.569 413.355 662.564 415.977 680.306C400.047 708.313 392.287 701.985 361.082 722.34C310.973 725.986 288.183 729.949 236.206 702.685C185.723 676.204 163.006 661.05 136.245 626.884C116.813 602.074 119.295 569.042 118.714 539.838C117.996 503.754 121.39 509.537 128.973 492.32C136.556 475.102 138.938 473.16 162.743 464.827C184.213 457.311 198.93 478.267 224.802 485.385C254.248 499.693 265.928 500.36 286.917 515.163Z" fill="#F5BF4A"/>
<circle cx="392.552" cy="309.345" r="12" transform="rotate(24.398 392.552 309.345)" fill="#FAF6EF" stroke="#FAF6EF"/>
<circle cx="497.287" cy="356.849" r="12" transform="rotate(24.398 497.287 356.849)" fill="#FAF6EF" stroke="#FAF6EF"/>
<line x1="385.568" y1="367.118" x2="458.424" y2="400.164" stroke="#FAF6EF" stroke-width="10" stroke-linecap="round"/>
</svg>
