<svg width="188" height="188" viewBox="0 0 188 188" fill="none" xmlns="http://www.w3.org/2000/svg">
<g clip-path="url(#clip0_40000052_21957)">
<path d="M82.4532 73.3046C98.7635 72.0281 138.729 74.0186 146.442 91.8688C149.099 98.0135 145.858 99.9392 145.858 103.985C145.858 105.889 147.5 108.096 147.457 111.082C147.435 113.657 145.815 116.296 145.815 117.616C145.815 119.369 147.694 121.597 147.435 125.276C147.284 127.439 145.815 129.581 145.815 130.706C145.815 132.286 147.565 134.493 147.435 137.825C147.349 140.4 145.858 142.412 145.837 143.796C145.793 145.549 147.522 147.951 147.457 150.915C147.414 153.381 145.858 155.805 145.945 157.363C146.009 158.618 147.176 160.348 147.37 161.863C148.386 169.371 143.136 174.737 137.217 178.372C118.811 189.666 85.7585 190.034 65.4084 184.452C55.3414 181.682 38.3614 174.477 40.6945 161.43C40.9321 160.067 42.1203 158.574 42.1419 157.492C42.1635 155.956 40.6081 153.49 40.5433 150.958C40.4353 147.648 42.1851 145.614 42.1419 143.84C42.1203 142.433 40.6297 140.464 40.5433 137.868C40.4353 134.536 42.1635 132.329 42.1635 130.75C42.1635 129.625 40.6945 127.483 40.5433 125.319C40.284 121.619 42.1635 119.412 42.1635 117.66C42.1635 116.318 40.5649 113.7 40.5217 111.125C40.4785 108.139 42.1203 105.933 42.1203 104.029C42.1203 102.449 40.6513 100.264 40.5217 98.0352C39.5495 81.1154 69.7506 74.3432 82.41 73.3479L82.4532 73.3046ZM84.6351 78.757C74.9786 79.4278 61.347 82.3487 53.1811 87.6496C37.7997 97.6241 50.7399 106.711 62.1247 110.822C80.0553 117.292 105.763 117.335 123.866 111.493C136.461 107.425 151.54 97.689 133.825 87.0438C120.647 79.1465 99.7141 77.6968 84.6567 78.757H84.6351ZM46.8514 108.637C43.8701 113.614 50.3943 118.633 54.1964 120.927C73.2071 132.329 114.771 132.329 133.804 120.927C137.541 118.676 144.087 113.505 141.149 108.637C126.523 120.04 104.143 122.182 86.0825 121.208C73.0559 120.494 57.1128 117.01 46.8514 108.637ZM141.97 122.831C141.278 122.117 138.124 124.929 137.239 125.449C114.447 138.366 74.5033 138.193 51.496 125.838C50.1134 125.103 48.2772 123.285 47.3266 122.917C44.6478 121.857 46.7433 127.007 47.2402 127.915C55.9895 144.467 102.479 143.84 118.12 140.118C126.631 138.084 141.689 133.259 141.991 122.809L141.97 122.831ZM141.97 135.921C138.448 137.435 135.532 139.88 131.989 141.481C111.488 150.634 76.534 150.655 56.0327 141.481C52.749 140.01 49.7462 138.041 46.8514 135.942C44.9503 135.38 46.7217 139.945 47.0458 140.659C48.4284 143.71 51.3016 145.614 54.0668 147.28C73.2719 158.899 114.771 158.899 133.977 147.28C138.254 144.684 142.207 141.503 141.991 135.921H141.97ZM141.97 149.033L130.887 155.134C108.528 164.568 72.6886 163.983 51.3232 152.213C48.9469 150.915 44.4966 146.068 46.2897 152.343C48.5796 160.348 63.2481 165.13 70.5499 166.796C87.0547 170.539 107.686 170.193 123.845 165.022C131.06 162.707 142.272 157.99 141.948 149.054L141.97 149.033ZM141.97 162.123L132.896 167.51C111.337 177.571 72.3214 177.528 51.5392 165.628C50.2214 164.871 47.6075 162.447 46.8514 162.123C45.7712 161.668 46.0304 162.858 46.0304 163.486C46.0304 168.138 50.6103 171.686 54.218 173.85C73.2935 185.295 114.75 185.295 133.825 173.85C138.038 171.318 142.639 167.575 141.991 162.101L141.97 162.123Z" fill="#4C060B"/>
<path d="M84.6351 78.7571C99.6925 77.6969 120.647 79.1465 133.804 87.0439C151.518 97.6674 136.439 107.425 123.845 111.493C105.741 117.335 80.0337 117.27 62.1031 110.822C50.7183 106.711 37.7781 97.6241 53.1594 87.6497C61.3254 82.3487 74.9569 79.4494 84.6135 78.7571H84.6351ZM130.326 94.6383C119.74 82.2406 67.6119 82.0675 57.4801 94.8547C55.687 97.1265 56.2919 99.8311 59.3595 99.3767C60.0076 99.2685 64.0258 96.023 65.646 95.2441C80.0553 88.3204 107.102 88.3637 121.62 94.8979C123.391 95.6985 128.079 99.2902 128.641 99.3767C131.924 99.8527 132.27 96.9101 130.326 94.6383Z" fill="#FCEFD1"/>
<path d="M46.8513 108.637C57.0912 116.989 73.0342 120.494 86.0825 121.208C104.164 122.182 126.523 120.04 141.149 108.637C144.087 113.484 137.541 118.676 133.804 120.927C114.771 132.329 73.2071 132.329 54.1964 120.927C50.3942 118.655 43.8701 113.613 46.8513 108.637Z" fill="#FCEFD1"/>
<path d="M141.97 149.032C142.272 157.968 131.082 162.707 123.866 165C107.707 170.171 87.0762 170.518 70.5715 166.774C63.2697 165.108 48.6012 160.327 46.3113 152.321C44.5182 146.068 48.9684 150.893 51.3448 152.191C72.7102 163.983 108.571 164.546 130.909 155.112L141.991 149.011L141.97 149.032Z" fill="#FCEFD1"/>
<path d="M141.97 162.123C142.618 167.597 138.016 171.34 133.804 173.871C114.728 185.317 73.272 185.317 54.1965 173.871C50.5888 171.708 45.9873 168.138 46.0089 163.507C46.0089 162.88 45.7713 161.69 46.8298 162.144C47.5859 162.469 50.1999 164.892 51.5177 165.649C72.3214 177.528 111.337 177.593 132.875 167.532L141.948 162.144L141.97 162.123Z" fill="#FCEFD1"/>
<path d="M141.97 122.831C141.689 133.281 126.61 138.106 118.098 140.14C102.458 143.861 55.9463 144.489 47.2187 127.937C46.7218 127.007 44.6479 121.857 47.3051 122.939C48.2556 123.307 50.0919 125.124 51.4745 125.86C74.4817 138.214 114.426 138.366 137.217 125.47C138.124 124.951 141.257 122.138 141.948 122.852L141.97 122.831Z" fill="#FCEFD1"/>
<path d="M141.97 135.921C142.186 141.481 138.254 144.684 133.955 147.28C114.75 158.899 73.2287 158.899 54.0451 147.28C51.2799 145.614 48.4283 143.71 47.0241 140.659C46.7001 139.945 44.9286 135.38 46.8297 135.942C49.7245 138.041 52.7274 140.01 56.011 141.481C76.5123 150.655 111.466 150.634 131.967 141.481C135.51 139.902 138.427 137.457 141.948 135.921H141.97Z" fill="#FCEFD1"/>
<path d="M130.326 94.6382C132.27 96.9101 131.924 99.8743 128.641 99.3767C128.079 99.2901 123.391 95.6768 121.62 94.8979C107.081 88.3853 80.0337 88.342 65.6461 95.2441C64.0258 96.023 60.0077 99.2685 59.3596 99.3767C56.2919 99.831 55.6654 97.1264 57.4801 94.8546C67.6335 82.0674 119.74 82.2189 130.326 94.6382Z" fill="#4C060B"/>
<path d="M66.4021 47.0595C57.1344 27.1972 70.6363 3.72151 92.4986 2.74786C92.9954 2.72623 93.4923 2.70459 94.0108 2.70459C94.5293 2.70459 95.0261 2.70459 95.523 2.74786C117.385 3.74314 130.887 27.2188 121.62 47.0595L115.095 61.0151L97.5105 98.6627C96.1279 101.627 91.9153 101.627 90.5327 98.6627L72.9478 61.0151L66.4237 47.0595H66.4021Z" fill="#F4D23C"/>
<path d="M94.0108 103.574C91.44 103.574 89.1717 102.125 88.07 99.7878L63.9609 48.2063C59.1218 37.864 59.7699 25.8341 65.7108 16.0327C71.5436 6.36119 81.265 0.54096 92.3906 0.0433191C93.4707 4.59816e-05 94.5725 4.59816e-05 95.6526 0.0433191C106.778 0.54096 116.5 6.38283 122.332 16.0327C128.252 25.8341 128.9 37.864 124.061 48.2063L99.9516 99.7878C98.8715 102.125 96.5816 103.574 94.0108 103.574ZM68.8648 45.9128L92.9739 97.4944C93.2547 98.0785 93.7516 98.1651 94.0108 98.1651C94.27 98.1651 94.7885 98.0785 95.0477 97.4944L119.157 45.9128C123.218 37.2149 122.678 27.089 117.688 18.8238C112.805 10.7318 104.683 5.86355 95.3934 5.43082C94.4645 5.38755 93.5355 5.38755 92.6066 5.43082C83.3173 5.84191 75.1945 10.7318 70.3122 18.8022C65.3219 27.0674 64.7818 37.1933 68.8432 45.8912L68.8648 45.9128Z" fill="#4C060B"/>
<path d="M94.0109 50.1969C102.255 50.1969 108.939 43.5032 108.939 35.246C108.939 26.9889 102.255 20.2952 94.0109 20.2952C85.7665 20.2952 79.0831 26.9889 79.0831 35.246C79.0831 43.5032 85.7665 50.1969 94.0109 50.1969Z" fill="#F29C4E"/>
<path d="M94.0108 52.9014C84.2894 52.9014 76.3827 44.9825 76.3827 35.246C76.3827 25.5096 84.2894 17.5906 94.0108 17.5906C103.732 17.5906 111.639 25.5096 111.639 35.246C111.639 44.9825 103.732 52.9014 94.0108 52.9014ZM94.0108 22.9997C87.2706 22.9997 81.7835 28.4954 81.7835 35.246C81.7835 41.9966 87.2706 47.4923 94.0108 47.4923C100.751 47.4923 106.238 41.9966 106.238 35.246C106.238 28.4954 100.751 22.9997 94.0108 22.9997Z" fill="#4C060B"/>
</g>
<defs>
<clipPath id="clip0_40000052_21957">
<rect width="107" height="188" fill="white" transform="translate(40.5)"/>
</clipPath>
</defs>
</svg>
