<svg width="514" height="188" viewBox="0 0 514 188" fill="none" xmlns="http://www.w3.org/2000/svg">
<path d="M42.9532 73.3046C59.2635 72.0281 99.2292 74.0186 106.942 91.8688C109.599 98.0136 106.358 99.9392 106.358 103.985C106.358 105.889 108 108.096 107.957 111.082C107.935 113.657 106.315 116.296 106.315 117.616C106.315 119.369 108.194 121.597 107.935 125.276C107.784 127.439 106.315 129.581 106.315 130.706C106.315 132.286 108.065 134.493 107.935 137.825C107.849 140.4 106.358 142.412 106.337 143.797C106.293 145.549 108.022 147.951 107.957 150.915C107.914 153.381 106.358 155.805 106.445 157.363C106.509 158.618 107.676 160.348 107.87 161.863C108.886 169.371 103.636 174.737 97.717 178.372C79.3112 189.666 46.2585 190.034 25.9084 184.452C15.8414 181.682 -1.13864 174.477 1.19449 161.43C1.43212 160.067 2.62029 158.574 2.64189 157.492C2.6635 155.956 1.10808 153.49 1.04327 150.958C0.935251 147.648 2.6851 145.614 2.64189 143.84C2.62029 142.433 1.12968 140.464 1.04327 137.868C0.935251 134.536 2.6635 132.329 2.6635 130.75C2.6635 129.625 1.19449 127.483 1.04327 125.319C0.784029 121.619 2.6635 119.412 2.6635 117.66C2.6635 116.318 1.06487 113.7 1.02166 111.125C0.978457 108.139 2.62029 105.933 2.62029 104.029C2.62029 102.449 1.15128 100.264 1.02166 98.0352C0.0495247 81.1154 30.2506 74.3432 42.91 73.3479L42.9532 73.3046ZM45.1351 78.757C35.4786 79.4278 21.847 82.3487 13.6811 87.6497C-1.70032 97.6241 11.2399 106.711 22.6247 110.822C40.5553 117.292 66.2629 117.335 84.3663 111.493C96.9609 107.425 112.04 97.689 94.3253 87.0438C81.1475 79.1465 60.2141 77.6968 45.1567 78.757H45.1351ZM7.35136 108.637C4.37014 113.614 10.8943 118.633 14.6964 120.927C33.7071 132.329 75.2714 132.329 94.3037 120.927C98.041 118.676 104.587 113.505 101.649 108.637C87.0235 120.04 64.6427 122.182 46.5825 121.208C33.5559 120.494 17.6128 117.01 7.35136 108.637ZM102.47 122.831C101.778 122.117 98.6243 124.929 97.7386 125.449C74.9474 138.366 35.0033 138.193 11.996 125.838C10.6134 125.103 8.77717 123.285 7.82663 122.917C5.14785 121.857 7.24335 127.007 7.74022 127.915C16.4895 144.467 62.9793 143.84 78.6199 140.118C87.1315 138.084 102.189 133.26 102.491 122.809L102.47 122.831ZM102.47 135.921C98.9484 137.435 96.032 139.88 92.4891 141.481C71.9877 150.634 37.034 150.655 16.5327 141.481C13.249 140.01 10.2462 138.041 7.35136 135.942C5.45029 135.38 7.22174 139.945 7.54579 140.659C8.92839 143.71 11.8016 145.614 14.5668 147.28C33.7719 158.899 75.2714 158.899 94.4765 147.28C98.7539 144.684 102.707 141.503 102.491 135.921H102.47ZM102.47 149.033L91.3873 155.134C69.0281 164.568 33.1886 163.983 11.8232 152.213C9.44686 150.915 4.99663 146.068 6.78968 152.343C9.07961 160.348 23.7481 165.13 31.0499 166.796C47.5547 170.539 68.1856 170.193 84.3447 165.022C91.5601 162.707 102.772 157.99 102.448 149.054L102.47 149.033ZM102.47 162.123L93.3964 167.51C71.8365 177.571 32.8214 177.528 12.0392 165.628C10.7214 164.871 8.10747 162.447 7.35136 162.123C6.27121 161.668 6.53045 162.858 6.53045 163.486C6.53045 168.138 11.1103 171.686 14.718 173.85C33.7935 185.295 75.2498 185.295 94.3253 173.85C98.5379 171.318 103.139 167.575 102.491 162.101L102.47 162.123Z" fill="#4C060B"/>
<path d="M45.1351 78.757C60.1925 77.6968 81.1474 79.1465 94.3037 87.0438C112.018 97.6674 96.9393 107.425 84.3447 111.493C66.2413 117.335 40.5337 117.27 22.6031 110.822C11.2183 106.711 -1.72193 97.6241 13.6595 87.6497C21.8254 82.3487 35.457 79.4494 45.1135 78.757L45.1351 78.757ZM90.8256 94.6383C80.2401 82.2405 28.1119 82.0674 17.9801 94.8546C16.187 97.1265 16.7919 99.831 19.8595 99.3767C20.5076 99.2685 24.5258 96.023 26.146 95.2441C40.5553 88.3204 67.6023 88.3637 82.1196 94.8979C83.891 95.6985 88.5789 99.2901 89.1406 99.3767C92.4242 99.8527 92.7699 96.9101 90.8256 94.6383Z" fill="#FCEFD1"/>
<path d="M7.35136 108.637C17.5912 116.989 33.5343 120.494 46.5825 121.208C64.6643 122.182 87.0235 120.04 101.649 108.637C104.587 113.484 98.041 118.676 94.3037 120.927C75.2714 132.329 33.7071 132.329 14.6964 120.927C10.8943 118.655 4.37014 113.614 7.35136 108.637Z" fill="#FCEFD1"/>
<path d="M102.47 149.033C102.772 157.968 91.5817 162.707 84.3663 165C68.2072 170.171 47.5763 170.518 31.0715 166.775C23.7697 165.109 9.10121 160.327 6.81129 152.321C5.01823 146.068 9.46846 150.893 11.8448 152.191C33.2102 163.983 69.0713 164.546 91.4089 155.112L102.491 149.011L102.47 149.033Z" fill="#FCEFD1"/>
<path d="M102.47 162.123C103.118 167.597 98.5163 171.34 94.3037 173.871C75.2282 185.317 33.7719 185.317 14.6964 173.871C11.0887 171.708 6.48724 168.138 6.50884 163.507C6.50884 162.88 6.27121 161.69 7.32976 162.144C8.08587 162.469 10.6998 164.892 12.0176 165.649C32.8214 177.528 71.8365 177.593 93.3748 167.532L102.448 162.144L102.47 162.123Z" fill="#FCEFD1"/>
<path d="M102.47 122.831C102.189 133.281 87.1099 138.106 78.5983 140.14C62.9577 143.861 16.4463 144.489 7.71861 127.937C7.22174 127.007 5.14785 121.857 7.80503 122.939C8.75556 123.307 10.5918 125.124 11.9744 125.86C34.9817 138.214 74.9258 138.366 97.717 125.47C98.6243 124.951 101.757 122.138 102.448 122.852L102.47 122.831Z" fill="#FCEFD1"/>
<path d="M102.47 135.921C102.686 141.481 98.754 144.684 94.4549 147.28C75.2498 158.899 33.7287 158.899 14.5452 147.28C11.78 145.614 8.92839 143.71 7.52419 140.659C7.20014 139.945 5.42869 135.38 7.32976 135.942C10.2246 138.041 13.2274 140.01 16.5111 141.481C37.0124 150.655 71.9661 150.634 92.4675 141.481C96.0104 139.902 98.9268 137.457 102.448 135.921H102.47Z" fill="#FCEFD1"/>
<path d="M90.8256 94.6383C92.7699 96.9101 92.4242 99.8743 89.1406 99.3767C88.5789 99.2901 83.891 95.6768 82.1196 94.8979C67.5807 88.3853 40.5337 88.342 26.146 95.2441C24.5258 96.023 20.5076 99.2685 19.8595 99.3767C16.7919 99.831 16.1654 97.1265 17.9801 94.8546C28.1335 82.0674 80.2401 82.2189 90.8256 94.6383Z" fill="#4C060B"/>
<path d="M26.9021 47.0595C17.6344 27.1971 31.1363 3.72147 52.9986 2.74783C53.4955 2.72619 53.9924 2.70455 54.5109 2.70455C55.0293 2.70455 55.5262 2.70455 56.0231 2.74783C77.8854 3.74311 91.3873 27.2188 82.1196 47.0595L58.0106 98.6627C56.628 101.627 52.4154 101.627 51.0328 98.6627L26.9237 47.0595H26.9021Z" fill="#F4D23C"/>
<path d="M54.5109 103.574C51.9401 103.574 49.6718 102.125 48.57 99.7878L24.461 48.2062C19.6219 37.864 20.27 25.834 26.2108 16.0327C32.0437 6.36113 41.7651 0.540899 52.8906 0.0432581C53.9708 -1.50539e-05 55.0725 -1.50539e-05 56.1527 0.0432581C67.2783 0.540899 76.9997 6.38277 82.8325 16.0327C88.7517 25.834 89.3998 37.864 84.5607 48.2062L60.4517 99.7878C59.3716 102.125 57.0816 103.574 54.5109 103.574ZM29.3649 45.9128L53.4739 97.4943C53.7548 98.0785 54.2516 98.165 54.5109 98.165C54.7701 98.165 55.2886 98.0785 55.5478 97.4943L79.6568 45.9128C83.7182 37.2149 83.1781 27.0889 78.1878 18.8238C73.3055 10.7317 65.1828 5.86349 55.8935 5.43076C54.9645 5.38749 54.0356 5.38749 53.1067 5.43076C43.8173 5.84185 35.6946 10.7317 30.8123 18.8021C25.822 27.0673 25.2819 37.1932 29.3433 45.8911L29.3649 45.9128Z" fill="#4C060B"/>
<path d="M54.5109 50.1968C62.7552 50.1968 69.4386 43.5031 69.4386 35.2459C69.4386 26.9888 62.7552 20.2951 54.5109 20.2951C46.2665 20.2951 39.5831 26.9888 39.5831 35.2459C39.5831 43.5031 46.2665 50.1968 54.5109 50.1968Z" fill="#F29C4E"/>
<path d="M54.5109 52.9014C44.7895 52.9014 36.8828 44.9824 36.8828 35.2459C36.8828 25.5095 44.7895 17.5905 54.5109 17.5905C64.2322 17.5905 72.139 25.5095 72.139 35.2459C72.139 44.9824 64.2322 52.9014 54.5109 52.9014ZM54.5109 22.9996C47.7707 22.9996 42.2835 28.4953 42.2835 35.2459C42.2835 41.9965 47.7707 47.4922 54.5109 47.4922C61.251 47.4922 66.7382 41.9965 66.7382 35.2459C66.7382 28.4953 61.251 22.9996 54.5109 22.9996Z" fill="#4C060B"/>
<path d="M268.293 97.5225C267.767 95.8539 266.655 94.5253 265.018 93.5674C263.35 92.5168 261.775 92.2387 260.261 92.6713C258.778 93.1039 257.512 94.1854 256.554 95.8848C253.218 102.126 249.542 107.75 245.526 112.756C245.402 112.91 245.279 113.065 245.155 113.188C241.788 117.36 237.988 121.191 233.787 124.652C233.108 125.239 232.428 125.764 231.748 126.32C227.362 129.75 227.578 130.152 223.655 132.191C222.358 132.871 220.998 133.427 219.547 133.581C206.263 135.281 210.557 152.924 224.582 147.022C229.895 143.963 234.745 140.719 239.131 137.32C240.151 136.517 241.17 135.713 242.128 134.91C244.97 132.562 247.657 130.028 250.16 127.34C252.26 125.146 254.237 122.86 256.091 120.449C260.23 115.104 264.122 109.14 267.737 102.528C268.632 100.829 268.818 99.1601 268.293 97.4916V97.5225ZM274.718 79.6629C274.594 77.809 273.853 76.3567 272.586 75.3062C271.289 74.2865 269.714 73.8539 267.829 73.9775L239.996 76.6966L226.404 78.0253L218.712 78.7668C216.828 78.8286 215.345 79.5084 214.295 80.7753C213.245 82.0421 212.781 83.6489 212.936 85.6573C213.152 87.6039 213.924 89.0871 215.191 90.1067C216.488 91.1573 218.095 91.559 220.041 91.3427L227.486 90.6011L241.17 89.2416L269.188 86.4298C271.073 86.3062 272.525 85.5955 273.544 84.3286C274.564 83.0618 274.965 81.5168 274.718 79.6629ZM276.819 126.537C275.058 120.511 266.408 120.511 265.574 126.938C265.142 130.553 264.647 133.242 264.122 134.941C263.597 136.64 262.64 137.444 261.28 137.289C258.346 136.826 255.72 135.219 253.434 132.438C252.26 131.017 251.179 129.348 250.16 127.371C249.171 125.486 248.275 123.354 247.441 120.975C246.607 118.595 245.835 116 245.155 113.188C244.445 110.315 243.796 107.225 243.209 103.919C242.437 99.3764 241.757 94.4635 241.17 89.2416C240.923 86.9859 240.676 84.6376 240.46 82.2584C240.274 80.4354 240.12 78.5814 239.996 76.6966C239.502 70.455 239.193 63.8736 239.039 56.9522C238.946 54.9747 238.267 53.3371 237 52.0702C235.733 50.8034 234.065 50.1854 232.027 50.1854C229.988 50.1854 228.258 50.8034 226.991 52.0702C225.756 53.3371 225.169 54.9747 225.261 56.9522C225.539 64.3371 225.941 71.3511 226.404 78.0253C226.682 81.6095 226.96 85.1011 227.269 88.5C227.331 89.2107 227.393 89.9213 227.486 90.6011C228.381 99.4382 229.586 107.441 231.131 114.579C231.903 118.163 232.768 121.531 233.787 124.652C234.899 128.267 236.197 131.542 237.618 134.508C238.081 135.497 238.606 136.455 239.131 137.351C241.51 141.584 244.321 145.014 247.626 147.671C251.611 150.916 256.4 152.77 261.96 153.295C264.153 153.449 266.099 153.017 267.767 152.028C269.466 151.008 271.011 149.124 272.401 146.343C273.822 143.562 275.058 139.638 276.201 134.601C276.664 132.593 277.653 128.452 276.819 126.537ZM264.462 61.9579C263.844 61.1545 262.918 60.1039 261.62 58.8062C260.354 57.5084 259.025 56.2725 257.666 55.0674C256.461 53.7388 255.009 52.9972 253.31 52.7809C251.642 52.5955 250.005 52.9972 248.399 53.955C246.823 55.0056 245.927 56.2107 245.711 57.632C245.464 59.0534 245.958 60.4129 247.163 61.7416C248.213 62.7921 249.356 63.9972 250.623 65.3567C251.859 66.7472 252.94 68.014 253.836 69.1882C255.102 70.7022 256.616 71.5674 258.346 71.8764C260.076 72.1854 261.744 71.7528 263.319 70.6404C264.895 69.5281 265.821 68.1685 266.099 66.5309C266.346 64.8932 265.821 63.3792 264.462 61.9579Z" fill="#4C060B"/>
<path d="M177.38 103.486L174.785 104.845C150.567 112.725 155.664 148.073 180.377 150.514C180.438 150.576 180.469 150.576 180.531 150.545C181.087 150.669 181.705 150.73 182.354 150.792C185.999 151.132 187.914 150.792 189.737 150.576C191.528 150.36 193.351 149.433 195.235 148.475C197.181 147.517 198.541 146.126 199.251 144.303C199.962 142.48 200.332 139.978 200.332 136.795V110.098C202.464 109.542 204.842 108.924 207.561 108.213C209.352 107.688 210.743 106.73 211.731 105.309C212.72 103.919 213.09 102.312 212.843 100.52C212.627 98.6657 211.886 97.3062 210.588 96.4101C209.322 95.514 207.777 95.2977 205.954 95.7303C203.916 96.2556 202.062 96.75 200.332 97.1826V80.8371H206.202C208.086 80.8371 209.6 80.2809 210.773 79.1067C211.947 77.9635 212.534 76.4494 212.534 74.5955C212.534 72.7416 211.947 71.2584 210.773 70.1461C209.6 69.0337 208.086 68.4775 206.202 68.4775H200.332V53.7079C200.332 51.7612 199.714 50.2163 198.51 49.0112C197.305 47.8371 195.73 47.25 193.753 47.25C191.775 47.25 190.107 47.8371 188.903 49.0112C187.698 50.2163 187.111 51.7612 187.111 53.7079V68.4775H168.885C167.001 68.4775 165.456 69.0337 164.313 70.1461C163.139 71.2584 162.553 72.7416 162.553 74.5955C162.553 76.4494 163.139 77.9635 164.313 79.1067C165.456 80.2809 167.001 80.8371 168.885 80.8371H187.111V100.458M187.111 136.795C187.111 137.536 186.926 138.062 186.586 138.402C186.246 138.742 185.659 138.896 184.856 138.896C176.206 139.576 167.186 129.565 172.345 121.5H172.376V121.438C175.434 118.07 179.141 116.216 183.064 114.517C184.516 114.084 185.844 113.652 187.111 113.312V136.795Z" fill="#4C060B"/>
<path d="M295.23 84.6067C296.187 83.618 297.454 83.1545 299.06 83.1545H342.864C344.439 83.1545 345.736 83.6489 346.694 84.6067C347.652 85.5955 348.115 86.8932 348.115 88.5309C348.115 90.1685 347.652 91.3736 346.694 92.3623C345.736 93.3511 344.47 93.8455 342.864 93.8455H299.06C297.454 93.8455 296.187 93.3511 295.23 92.3314C294.272 91.3118 293.809 90.014 293.809 88.4691C293.809 86.9241 294.272 85.6264 295.23 84.6376V84.6067Z" fill="#4C060B"/>
<path d="M313.98 41.8118C314.197 42.9859 314.444 44.5309 314.753 46.3848C314.969 47.6826 314.722 48.8876 313.98 49.9382C313.27 50.9887 312.22 51.7612 310.891 52.132C309.625 52.5646 308.605 52.4719 307.771 51.9157C306.968 51.3595 306.474 50.4326 306.258 49.073C306.041 47.1573 305.825 45.5505 305.609 44.2837C305.393 43.0168 305.146 41.6882 304.775 40.3904C304.435 39.0927 303.972 37.3314 303.478 35.2303C303.169 34.0871 303.261 33.0674 303.786 32.1095C304.342 31.1517 305.177 30.4719 306.443 30.0393C307.679 29.6685 308.76 29.6994 309.748 30.1938C310.706 30.6882 311.447 31.6461 311.849 32.9438C312.436 34.9831 312.899 36.6208 313.208 37.9803C313.548 39.2781 313.795 40.5758 314.011 41.7809L313.98 41.8118Z" fill="#4C060B"/>
<path d="M297.546 68.1067C298.535 67.1798 299.832 66.6854 301.439 66.6854H341.041C342.616 66.6854 343.914 67.1489 344.933 68.1067C345.922 69.0337 346.416 70.3932 346.416 72.0927C346.416 73.6685 345.922 74.9045 344.933 75.8623C343.945 76.7893 342.647 77.2837 341.041 77.2837H301.439C299.832 77.2837 298.566 76.7893 297.546 75.8315C296.558 74.8427 296.064 73.5758 296.064 72C296.064 70.4241 296.558 69.0646 297.546 68.1376V68.1067Z" fill="#4C060B"/>
<path d="M325.287 26.3932H316.452V52.1011H325.287V26.3932Z" fill="#4C060B"/>
<path d="M326.955 57.1685V87.8511H314.784V57.1685H316.452V21.7893H325.287V57.1685H326.955Z" fill="#4C060B"/>
<path d="M338.971 35.5702C338.94 35.7556 338.879 35.9101 338.817 36.0646C338.137 37.7949 337.519 39.2472 337.025 40.3595C336.531 41.4719 336.068 42.5843 335.604 43.6657C335.172 44.7472 334.585 46.014 333.905 47.4972C333.535 48.3623 332.855 48.9803 331.836 49.2893C330.878 49.6601 329.859 49.6601 328.87 49.2893C326.615 48.6095 325.812 47.1882 326.491 45.0253C327.233 43.3567 327.696 41.9972 328.067 40.8539C328.376 39.7416 328.746 38.6292 329.117 37.4859C329.426 36.3736 329.797 34.9522 330.198 33.3455C330.971 30.5646 332.917 29.6685 335.975 30.5955C337.334 30.9663 338.292 31.6461 338.755 32.6966C338.848 32.8511 338.879 32.9747 338.91 33.1601C339.188 33.8708 339.157 34.705 338.91 35.5393L338.971 35.5702Z" fill="#4C060B"/>
<path d="M370.11 24.323C371.252 23.2416 372.766 22.6854 374.651 22.6854C376.535 22.6854 378.11 23.2416 379.222 24.323C380.334 25.4354 380.891 26.9185 380.891 28.8343V38.073C380.891 40.9157 380.891 32.4185 380.891 35.7247V64.2753H368.38V35.6938C368.38 32.3258 368.38 40.823 368.38 38.0421V28.8652C368.38 26.9494 368.967 25.4663 370.11 24.3539V24.323Z" fill="#4C060B"/>
<path d="M395.934 37.0225C397.664 37.0225 399.085 37.5786 400.197 38.6601C401.309 39.7725 401.866 41.1629 401.866 42.8623C401.866 44.5618 401.309 46.0758 400.197 47.1573C399.085 48.2387 397.664 48.7949 395.934 48.7949H375.979V37.0225H395.934Z" fill="#4C060B"/>
<path d="M473.471 59.1461C474.398 60.7837 474.429 62.6376 473.595 64.7078C472.143 68.5393 472.359 68.2303 471.031 71.1348C469.733 74.0393 468.405 76.7275 467.107 79.1376C465.81 81.5477 464.358 83.927 462.783 86.2753C461.207 88.6236 459.385 91.0955 457.253 93.7837C455.894 95.5449 454.164 96.5028 452.064 96.6573C449.932 96.8118 447.955 96.1629 446.102 94.6489C444.31 93.1348 443.383 91.4972 443.321 89.6432C443.229 87.8202 443.908 86.0281 445.36 84.2668C447.214 82.0112 448.82 79.941 450.179 78.0253C451.538 76.1095 452.743 74.1938 453.793 72.2781C454.844 70.3623 455.894 68.2303 456.913 65.8511C457.933 63.4719 457.439 64.3989 458.643 61.2472C459.477 59.177 460.806 57.632 462.566 56.6123C464.327 55.5927 466.428 55.4073 468.776 55.9944C470.969 56.4887 472.544 57.5702 473.471 59.177V59.1461Z" fill="#4C060B"/>
<path d="M498.709 113.25C497.721 114.888 495.342 117.607 494.075 118.379C489.534 122.303 484.746 126.135 480.082 129.256C476.066 131.975 472.606 134.879 470.073 136.857C467.54 138.834 466.397 139.576 464.883 140.843C463.37 142.11 462.474 142.542 461.856 143.716C460.837 146.219 461.547 148.135 463.524 150.267C465.192 151.781 466.15 152.739 469.27 154.067C476.869 157.25 484.901 157.157 492.716 154.654C495.589 153.728 498.06 151.781 499.203 149.031C500.346 146.281 500.624 142.851 501.427 139.854C503.281 132.716 512.579 133.612 513.691 140.626C515.236 155.798 510.942 165.098 495.898 168.837C488.793 171.34 475.17 171.896 468.59 169.579C460.342 166.674 455.214 163.801 450.643 158.826C446.102 153.82 446.349 151.843 446.132 146.095C446.071 144.581 446.534 142.357 447.028 140.812C447.523 139.298 448.048 138.309 449.407 136.733C450.735 135.157 451.94 134.014 454.257 132.191C456.543 130.368 459.045 128.607 462.381 126.104C465.717 123.601 475.633 118.256 479.217 115.135C479.804 114.61 482.306 112.848 481.842 111.674C481.534 110.871 480.576 111.056 479.217 111.056C475.757 111.056 465.594 112.632 462.072 112.694C459.755 112.694 457.995 112.941 456.45 111.767C454.875 110.624 454.257 109.233 454.195 107.348C454.133 105.494 454.349 103.919 455.894 102.497C457.439 101.107 458.365 100.52 461.053 100.365C471.525 99.7781 483.665 99.809 494.137 100.489C496.825 100.674 497.72 101.23 499.265 102.713C500.81 104.197 500.933 105.896 500.933 107.904C500.933 109.913 499.698 111.643 498.709 113.281V113.25Z" fill="#4C060B"/>
<path d="M500.686 74.2865C502.509 74.2865 503.991 74.9045 505.134 76.1713C506.277 77.4073 506.833 79.1376 506.833 81.3005C506.833 83.4635 506.277 85.0702 505.134 86.368C503.991 87.6657 502.509 88.3146 500.686 88.3146H456.141V74.3174H500.686V74.2865Z" fill="#4C060B"/>
<path d="M303.786 110.438C302.798 115.598 297.794 118.997 292.635 118.008C287.476 117.02 284.078 112.014 285.066 106.854C286.055 101.694 291.677 95.7303 296.836 96.7191C301.995 97.7078 304.775 105.247 303.786 110.438Z" fill="#4C060B"/>
<path d="M317.811 108.893C316.915 112.261 313.486 114.27 310.119 113.404C306.752 112.539 304.744 109.079 305.609 105.711C306.474 102.343 310.459 98.2949 313.826 99.191C317.193 100.087 318.676 105.525 317.811 108.924V108.893Z" fill="#4C060B"/>
<path d="M332.083 110.191C331.65 113.652 328.53 116.124 325.07 115.691C321.611 115.258 319.139 112.138 319.572 108.677C320.004 105.216 323.34 101.107 326.8 101.508C330.26 101.91 332.515 106.73 332.114 110.191H332.083Z" fill="#4C060B"/>
<path d="M346.571 103.61C347.436 107.41 345.335 111.087 341.906 111.86C338.477 112.632 335.017 110.191 334.152 106.421C333.287 102.652 335.11 97.677 338.539 96.9045C341.968 96.132 345.736 99.8399 346.571 103.61Z" fill="#4C060B"/>
<path d="M348.918 19.2247C347.343 17.7416 345.366 17 342.895 17H299.493C297.083 17 295.106 17.7416 293.592 19.2247C292.017 20.7387 291.245 22.6854 291.245 25.0955V53.4298C291.245 55.7781 292.017 57.6938 293.592 59.2388C295.137 60.7837 297.083 61.5253 299.493 61.5253H342.895C345.366 61.5253 347.374 60.7837 348.918 59.2388C350.463 57.6938 351.235 55.7781 351.235 53.4298V25.0955C351.235 22.6854 350.463 20.7079 348.918 19.2247ZM316.977 52.1011H305.207C304.157 52.1011 303.354 51.7612 302.705 51.1123C302.087 50.4326 301.748 49.5674 301.748 48.5786V28.7416C301.748 28.0309 301.964 27.4747 302.396 27.0421C302.86 26.5786 303.416 26.3932 304.126 26.3932H316.977V52.1011ZM340.269 48.4859C340.269 49.5674 339.898 50.4326 339.249 51.1432C338.57 51.7921 337.705 52.132 336.685 52.132H325.812V26.3932H337.89C338.601 26.3932 339.157 26.5786 339.62 27.0421C340.053 27.4747 340.269 28.0618 340.269 28.8343V48.4859Z" fill="#4C060B"/>
<path d="M395.039 65.4185C393.649 64.0281 391.826 63.3483 389.602 63.3483H360.502C358.278 63.3483 356.456 64.0281 355.066 65.4185C353.675 66.809 352.965 68.6011 352.965 70.7949V103.393C352.965 105.587 353.675 107.348 355.066 108.708C356.456 110.067 358.278 110.716 360.502 110.716H389.602C391.826 110.716 393.649 110.037 395.039 108.708C396.429 107.348 397.139 105.587 397.139 103.393V70.7949C397.139 68.6011 396.429 66.809 395.039 65.4185ZM385.123 95.7921C385.123 96.7809 384.783 97.6152 384.103 98.2949C383.424 98.9747 382.528 99.3146 381.447 99.3146H368.627C367.546 99.3146 366.681 98.9747 365.97 98.2949C365.291 97.6152 364.951 96.7809 364.951 95.7921V78.5815C364.951 77.5309 365.291 76.6657 365.97 75.9859C366.65 75.3062 367.546 74.9663 368.627 74.9663H381.447C382.528 74.9663 383.393 75.3062 384.103 75.9859C384.783 76.6657 385.123 77.5309 385.123 78.5815V95.7921Z" fill="#4C060B"/>
<path d="M441.468 97.8624C440.263 96.6573 438.688 96.0702 436.742 96.0702H411.442C409.496 96.0702 407.92 96.6573 406.715 97.8624C405.511 99.0674 404.893 100.612 404.893 102.528V130.862C404.893 132.778 405.511 134.292 406.715 135.466C407.92 136.64 409.496 137.228 411.442 137.228H436.742C438.688 137.228 440.263 136.64 441.468 135.466C442.673 134.292 443.29 132.747 443.29 130.862V102.528C443.29 100.612 442.673 99.0674 441.468 97.8624ZM432.139 123.663C432.139 124.466 431.861 125.115 431.336 125.64C430.78 126.166 430.1 126.444 429.235 126.444H419.01C418.145 126.444 417.435 126.166 416.909 125.64C416.353 125.115 416.106 124.435 416.106 123.663V109.944C416.106 109.11 416.384 108.399 416.909 107.874C417.466 107.348 418.145 107.07 419.01 107.07H429.235C430.1 107.07 430.81 107.348 431.336 107.874C431.892 108.399 432.139 109.11 432.139 109.944V123.663Z" fill="#4C060B"/>
</svg>
